<svg xmlns="http://www.w3.org/2000/svg" width="1120" height="540" viewBox="0 0 1120 540">
  <rect width="1120" height="540" fill="#ffffff"/>
  <!-- Boden -->
  <line x1="0" y1="470" x2="1120" y2="470" stroke="#e0e0e0" stroke-width="3"/>

  <!-- ══ STEHEN (Front, Gesicht zur Kamera) ══ -->
  <g stroke="#0f0f0f" stroke-width="9" stroke-linecap="round" stroke-linejoin="round" fill="none">
    <circle cx="210" cy="176" r="42"/>
    <circle cx="194" cy="170" r="5" fill="#0f0f0f" stroke="none"/>
    <circle cx="226" cy="170" r="5" fill="#0f0f0f" stroke="none"/>
    <path d="M 194 188 Q 210 202 226 188" stroke-width="5"/>
    <line x1="210" y1="222" x2="210" y2="350"/>
    <line x1="210" y1="248" x2="144" y2="344"/>
    <line x1="210" y1="248" x2="276" y2="344"/>
    <line x1="210" y1="350" x2="172" y2="470"/>
    <line x1="210" y1="350" x2="248" y2="470"/>
  </g>

  <!-- ══ GEHEN nach rechts (Profil, gebeugte Knie + Arme) ══ -->
  <g stroke="#0f0f0f" stroke-width="9" stroke-linecap="round" stroke-linejoin="round" fill="none">
    <circle cx="560" cy="176" r="42"/>
    <circle cx="574" cy="170" r="5" fill="#0f0f0f" stroke="none"/>
    <line x1="600" y1="182" x2="616" y2="186" stroke-width="6"/>
    <!-- Rumpf (geneigt) -->
    <line x1="560" y1="222" x2="546" y2="350"/>
    <!-- vorderer Arm (vorgeschwungen, Ellbogen gebeugt) -->
    <line x1="557" y1="248" x2="560" y2="298"/>
    <line x1="560" y1="298" x2="592" y2="328"/>
    <!-- hinterer Arm (zurück, Ellbogen gebeugt) -->
    <line x1="557" y1="248" x2="548" y2="298"/>
    <line x1="548" y1="298" x2="522" y2="334"/>
    <!-- vorderes Bein (Knie nach vorn gebeugt, Fuß angehoben) -->
    <line x1="546" y1="350" x2="586" y2="404"/>
    <line x1="586" y1="404" x2="562" y2="448"/>
    <!-- hinteres Bein (abstoßend) -->
    <line x1="546" y1="350" x2="528" y2="416"/>
    <line x1="528" y1="416" x2="500" y2="470"/>
    <g stroke="#bbbbbb" stroke-width="5">
      <line x1="636" y1="300" x2="700" y2="300"/>
      <line x1="700" y1="300" x2="684" y2="288"/>
      <line x1="700" y1="300" x2="684" y2="312"/>
    </g>
  </g>

  <!-- ══ HOVER: größer + winken (Front) ══ -->
  <g stroke="#0f0f0f" stroke-width="12" stroke-linecap="round" stroke-linejoin="round" fill="none">
    <circle cx="900" cy="88" r="55"/>
    <circle cx="879" cy="80" r="6.5" fill="#0f0f0f" stroke="none"/>
    <circle cx="921" cy="80" r="6.5" fill="#0f0f0f" stroke="none"/>
    <path d="M 876 96 Q 900 118 924 96" stroke-width="6.5"/>
    <line x1="900" y1="148" x2="900" y2="314"/>
    <!-- linker Arm hängt (leicht gebeugt) -->
    <line x1="900" y1="181" x2="874" y2="250"/>
    <line x1="874" y1="250" x2="862" y2="312"/>
    <!-- rechter Arm winkt: Oberarm seitlich, Ellbogen knickt nach OBEN -->
    <line x1="900" y1="181" x2="950" y2="172"/>
    <line x1="950" y1="172" x2="978" y2="108"/>
    <!-- Beine -->
    <line x1="900" y1="314" x2="851" y2="470"/>
    <line x1="900" y1="314" x2="949" y2="470"/>
    <!-- Wink-Linien an der Hand -->
    <g stroke="#bbbbbb" stroke-width="4" fill="none">
      <path d="M 990 92 q 16 -2 24 -14"/>
      <path d="M 998 104 q 18 0 28 -10"/>
    </g>
  </g>

  <g font-family="system-ui, sans-serif" fill="#888888" font-size="20" text-anchor="middle">
    <text x="210" y="512">Stehen · Gesicht zur Kamera</text>
    <text x="560" y="512">Gehen nach rechts</text>
    <text x="900" y="512">Hover · größer + winken</text>
  </g>
</svg>
